<svg width="24" height="24" viewBox="0 0 24 24" fill="none" xmlns="http://www.w3.org/2000/svg">
<path d="M12.0069 21.6171C11.6229 21.6171 11.2389 21.5211 10.8933 21.3292L4.17328 17.6428C3.44364 17.2395 2.98291 16.4716 2.98291 15.6268V8.40755C2.98291 7.56272 3.44374 6.79479 4.17328 6.39152L10.8933 2.70512C11.5845 2.32115 12.41 2.32115 13.1012 2.70512L19.8212 6.39152C20.5508 6.79479 21.0116 7.56272 21.0116 8.40755V15.6268C21.0116 16.4716 20.5507 17.2395 19.8212 17.6428L13.1012 21.3292C12.7748 21.5212 12.3908 21.6173 12.0069 21.6173V21.6171ZM12.0069 3.18513C11.7572 3.18513 11.5077 3.24272 11.2581 3.37719L4.53808 7.06359C4.03891 7.33238 3.75084 7.85082 3.75084 8.40755V15.6268C3.75084 16.1835 4.05807 16.7019 4.53808 16.9707L11.2581 20.6571C11.7189 20.9068 12.2757 20.9068 12.7365 20.6571L19.4565 16.9707C19.9557 16.7019 20.2629 16.1835 20.2629 15.6268V8.40755C20.2629 7.85082 19.9557 7.33239 19.4565 7.06359L12.7365 3.37719C12.506 3.24272 12.2565 3.18513 12.0069 3.18513Z" fill="black"/>
<path d="M11.9878 11.9019C11.4886 11.9019 11.0662 11.7292 10.7974 11.4219C10.6053 11.1916 10.375 10.7883 10.471 10.1164C10.5862 9.17556 11.5846 7.88916 11.6998 7.75483C11.7765 7.6588 11.8726 7.60121 12.007 7.60121C12.1222 7.60121 12.2374 7.6588 12.3143 7.73568C12.3527 7.79327 13.3894 9.07964 13.5431 10.0972C13.6391 10.7693 13.4279 11.1917 13.2358 11.4028C12.9478 11.7292 12.5253 11.9019 11.9878 11.9019ZM12.0069 8.61866C11.6997 9.07949 11.2965 9.75142 11.239 10.1931C11.2198 10.4043 11.2198 10.6923 11.3926 10.9035C11.5462 11.0955 11.815 11.1339 12.0071 11.1339C12.2183 11.1339 12.4871 11.0954 12.6407 10.9226C12.7943 10.7306 12.7943 10.4426 12.7751 10.2314C12.6981 9.71315 12.3141 9.06036 12.0069 8.61866Z" fill="black"/>
<path d="M10.778 16.3179C10.7012 16.3179 10.6052 16.3179 10.5283 16.2988C10.1059 16.222 9.7028 15.9533 9.37627 15.5309C8.7811 14.7436 8.58903 13.2076 8.56987 13.0157C8.55072 12.9005 8.6083 12.766 8.68505 12.6893C8.78107 12.6126 8.89625 12.5741 9.03058 12.5933C9.10732 12.6124 10.8161 12.9772 11.6609 13.6493C12.1409 14.0333 12.3906 14.4557 12.3713 14.8972C12.3713 15.166 12.2561 15.5693 11.7761 15.9533C11.45 16.2027 11.1235 16.318 10.778 16.318L10.778 16.3179ZM9.41471 13.4955C9.51074 14.014 9.70265 14.7052 9.99074 15.07C10.2019 15.3388 10.4323 15.5116 10.6628 15.55C10.9316 15.5884 11.162 15.4733 11.2964 15.358C11.4309 15.2619 11.5844 15.0892 11.5844 14.9164C11.5844 14.7243 11.4307 14.5131 11.1428 14.2828C10.7204 13.918 9.93314 13.6492 9.41471 13.4955Z" fill="black"/>
<path d="M13.2357 16.3179C12.8902 16.3179 12.5636 16.2028 12.2565 15.9724C11.7765 15.6076 11.6614 15.1852 11.6614 14.9164C11.6614 14.4748 11.8917 14.0524 12.3717 13.6684C13.2166 12.9964 14.9253 12.6124 15.0021 12.6124C15.1173 12.5932 15.2517 12.6124 15.3476 12.7084C15.4437 12.7852 15.4821 12.9196 15.4628 13.0348C15.4437 13.2076 15.2516 14.7627 14.6564 15.55C14.33 15.9724 13.9268 16.2412 13.5044 16.3179C13.4085 16.2986 13.3124 16.3179 13.2357 16.3179ZM14.599 13.4955C14.0614 13.6491 13.2934 13.9179 12.8517 14.2635C12.5638 14.4938 12.4102 14.7243 12.4102 14.8971C12.4102 15.0891 12.5638 15.2426 12.6981 15.3386C12.9093 15.4922 13.1205 15.569 13.3317 15.5307C13.5621 15.4922 13.8117 15.3195 14.0038 15.0507C14.3109 14.6858 14.503 14.0138 14.599 13.4955Z" fill="black"/>
<path d="M10.7781 18.7755C10.7013 18.7755 10.6053 18.7755 10.5284 18.7564C10.106 18.6796 9.70289 18.4109 9.37636 17.9885C8.76202 17.2011 8.57009 15.665 8.55082 15.4923C8.53167 15.3771 8.58926 15.2426 8.666 15.1659C8.76203 15.0892 8.87721 15.0507 9.01154 15.0699C9.08828 15.089 10.7971 15.4538 11.6419 16.1259C12.1219 16.5099 12.3715 16.9323 12.3523 17.3738C12.3523 17.6426 12.2371 18.0459 11.7571 18.4299C11.4501 18.6604 11.1236 18.7755 10.7781 18.7755ZM9.4148 15.9531C9.51082 16.4716 9.70274 17.1628 9.99083 17.5276C10.202 17.7964 10.4324 17.9692 10.6629 18.0076C10.9317 18.046 11.1621 17.9309 11.2965 17.8155C11.431 17.7195 11.5844 17.5468 11.5844 17.374C11.5844 17.1819 11.4308 16.9707 11.1429 16.7404C10.7205 16.3756 9.93323 16.1068 9.4148 15.9531Z" fill="black"/>
<path d="M13.2357 18.7755C12.8902 18.7755 12.5636 18.6603 12.2565 18.43C11.7765 18.0652 11.6614 17.6428 11.6614 17.374C11.6614 16.9324 11.8917 16.51 12.3717 16.126C13.2166 15.454 14.9253 15.07 15.0021 15.07C15.1173 15.0508 15.2517 15.07 15.3476 15.166C15.4437 15.2428 15.4821 15.3772 15.4628 15.4924C15.4437 15.6652 15.2516 17.2203 14.6564 18.0076C14.33 18.43 13.9268 18.6988 13.5044 18.7755L13.2357 18.7755ZM14.599 15.9531C14.0614 16.1067 13.2934 16.3755 12.8517 16.7211C12.5638 16.9514 12.4102 17.1819 12.4102 17.3547C12.4102 17.5467 12.5638 17.7002 12.6981 17.7962C12.9093 17.9498 13.1205 18.0266 13.3317 17.9883C13.5621 17.9498 13.8117 17.7771 14.0038 17.5083C14.3109 17.1626 14.503 16.4907 14.599 15.9531Z" fill="black"/>
<path d="M10.778 13.8411C10.7012 13.8411 10.6052 13.8411 10.5283 13.822C10.1059 13.7452 9.7028 13.4764 9.37627 13.054C8.7811 12.2668 8.58903 10.7308 8.56987 10.5389C8.55072 10.4237 8.6083 10.2892 8.68505 10.2125C8.78107 10.1358 8.89625 10.0973 9.03058 10.1165C9.10732 10.1356 10.8161 10.5004 11.6609 11.1725C12.1409 11.5565 12.3906 11.9789 12.3713 12.4204C12.3713 12.6892 12.2561 13.0925 11.7761 13.4765C11.45 13.726 11.1235 13.8412 10.778 13.8412L10.778 13.8411ZM9.41471 11.0187C9.51074 11.5372 9.70265 12.2284 9.99074 12.5932C10.2019 12.862 10.4323 13.0348 10.6628 13.0732C10.9316 13.1116 11.162 12.9965 11.2964 12.8811C11.4309 12.7851 11.5844 12.6124 11.5844 12.4396C11.5844 12.2475 11.4307 12.0363 11.1428 11.806C10.7204 11.4411 9.93314 11.1724 9.41471 11.0187Z" fill="black"/>
<path d="M13.2357 13.8411C12.8902 13.8411 12.5636 13.726 12.2565 13.4956C11.7765 13.1308 11.6614 12.7084 11.6614 12.4396C11.6614 11.998 11.8917 11.5756 12.3717 11.1916C13.2166 10.5196 14.9253 10.1356 15.0021 10.1356C15.1173 10.1165 15.2517 10.1356 15.3476 10.2316C15.4437 10.3084 15.4821 10.4428 15.4628 10.558C15.4437 10.7308 15.2516 12.2859 14.6564 13.0732C14.33 13.4956 13.9268 13.7644 13.5044 13.8411L13.2357 13.8411ZM14.599 11.0187C14.0614 11.1724 13.2934 11.4411 12.8517 11.7867C12.5638 12.017 12.4102 12.2475 12.4102 12.4203C12.4102 12.6123 12.5638 12.7658 12.6981 12.8618C12.9093 13.0155 13.1205 13.0922 13.3317 13.0539C13.5621 13.0155 13.8117 12.8427 14.0038 12.5739C14.3109 12.2284 14.503 11.5372 14.599 11.0187Z" fill="black"/>
<path d="M12.0068 21.4635C11.7956 21.4635 11.6228 21.2908 11.6228 21.0796V11.7868C11.6228 11.5756 11.7956 11.4028 12.0068 11.4028C12.218 11.4028 12.3907 11.5756 12.3907 11.7868V21.0796C12.3907 21.2908 12.218 21.4635 12.0068 21.4635Z" fill="black"/>
<path d="M12.007 14.2443L12.9861 13.5338L11.9878 12.7659L11.0278 13.5338L12.007 14.2443Z" fill="black"/>
<path d="M12.007 16.6827L12.9861 15.9532L11.9878 15.1852L11.0278 15.9532L12.007 16.6827Z" fill="black"/>
<path d="M8.93499 10.8459C8.72378 10.8459 8.55103 10.6732 8.55103 10.462V7.42837C8.55103 7.21716 8.72379 7.0444 8.93499 7.0444C9.1462 7.0444 9.31896 7.21717 9.31896 7.42837V10.4811C9.31909 10.6923 9.14619 10.846 8.93499 10.846V10.8459Z" fill="black"/>
<path d="M10.4709 10.9995C10.2597 10.9995 10.0869 10.8268 10.0869 10.6156V6.50677C10.0869 6.29556 10.2597 6.1228 10.4709 6.1228C10.6821 6.1228 10.8548 6.29557 10.8548 6.50677V10.5964C10.8548 10.8267 10.6821 10.9995 10.4709 10.9995V10.9995Z" fill="black"/>
<path d="M13.5429 10.9995C13.3317 10.9995 13.1589 10.8268 13.1589 10.6156V6.50677C13.1589 6.29556 13.3317 6.1228 13.5429 6.1228C13.7541 6.1228 13.9269 6.29557 13.9269 6.50677V10.5964C13.9269 10.8267 13.7541 10.9995 13.5429 10.9995V10.9995Z" fill="black"/>
<path d="M12.0068 8.59954C11.7956 8.59954 11.6228 8.42677 11.6228 8.21557V5.45074C11.6228 5.23953 11.7956 5.06677 12.0068 5.06677C12.218 5.06677 12.3907 5.23954 12.3907 5.45074V8.21557C12.3907 8.42678 12.218 8.59954 12.0068 8.59954Z" fill="black"/>
<path d="M15.0789 10.8459C14.8677 10.8459 14.695 10.6732 14.695 10.462L14.6948 7.42837C14.6948 7.21716 14.8676 7.0444 15.0788 7.0444C15.29 7.0444 15.4628 7.21717 15.4628 7.42837V10.4811C15.4629 10.6923 15.2901 10.846 15.0789 10.846L15.0789 10.8459Z" fill="black"/>
</svg>
