<svg width="24" height="24" viewBox="0 0 24 24" fill="none" xmlns="http://www.w3.org/2000/svg">
<path d="M12.0069 21.6171C11.6229 21.6171 11.2389 21.5211 10.8933 21.3292L4.17328 17.6428C3.44364 17.2395 2.98291 16.4716 2.98291 15.6268V8.40755C2.98291 7.56272 3.44374 6.79479 4.17328 6.39152L10.8933 2.70512C11.5845 2.32115 12.41 2.32115 13.1012 2.70512L19.8212 6.39152C20.5508 6.79479 21.0116 7.56272 21.0116 8.40755V15.6268C21.0116 16.4716 20.5507 17.2395 19.8212 17.6428L13.1012 21.3292C12.7748 21.5212 12.3908 21.6173 12.0069 21.6173V21.6171ZM12.0069 3.18513C11.7572 3.18513 11.5077 3.24272 11.2581 3.37719L4.53808 7.06359C4.03891 7.33238 3.75084 7.85082 3.75084 8.40755V15.6268C3.75084 16.1835 4.05807 16.7019 4.53808 16.9707L11.2581 20.6571C11.7189 20.9068 12.2757 20.9068 12.7365 20.6571L19.4565 16.9707C19.9557 16.7019 20.2629 16.1835 20.2629 15.6268V8.40755C20.2629 7.85082 19.9557 7.33239 19.4565 7.06359L12.7365 3.37719C12.506 3.24272 12.2565 3.18513 12.0069 3.18513Z" fill="black"/>
<path d="M16.9606 10.4235C16.903 10.4235 16.8645 10.4044 16.8069 10.3851C14.9061 9.61717 12.6405 8.81063 12.1797 8.82994C11.8534 8.98355 11.6421 8.81079 11.5653 8.69547C11.258 8.17704 12.3908 7.0634 12.698 6.87151C13.3701 6.42994 13.8308 6.42994 14.4836 6.54512C15.0212 6.64115 17.7091 7.56272 18.5732 7.85065C18.7076 7.88909 18.8228 8.00427 18.842 8.1386C18.8611 8.25378 18.842 8.38824 18.7459 8.48413L17.2678 10.2892C17.1909 10.3659 17.0757 10.4235 16.9606 10.4235ZM12.5254 8.11957C13.1398 8.2156 14.3686 8.56114 16.8262 9.55957H16.8453L17.8053 8.42681V8.40766C16.2501 7.87006 14.6757 7.37093 14.3685 7.31319C13.8885 7.21716 13.6197 7.21716 13.1397 7.5244C12.8901 7.69716 12.698 7.88923 12.5252 8.11956L12.5254 8.11957Z" fill="black"/>
<path d="M13.8116 14.1867C13.754 14.1867 13.7156 14.1676 13.658 14.1676C11.7956 13.3997 9.54916 12.6124 9.04996 12.6124H9.03081C8.70443 12.766 8.49321 12.5933 8.41635 12.478C8.10911 11.9595 9.24188 10.8459 9.54911 10.654C10.2212 10.2124 10.6819 10.2124 11.3346 10.3276C11.8531 10.4236 14.5602 11.3452 15.4242 11.6331C15.5587 11.6716 15.6739 11.7868 15.693 11.9211C15.7122 12.0363 15.693 12.1707 15.597 12.2666L14.0803 14.0715C14.0227 14.1483 13.9267 14.1868 13.8115 14.1868L13.8116 14.1867ZM9.39558 11.9019C10.0292 12.0171 11.2389 12.3627 13.6772 13.3419H13.6963L14.6563 12.2091V12.19C13.1012 11.6524 11.5267 11.1533 11.2195 11.0955C10.7395 10.9995 10.4707 10.9995 9.99073 11.3067C9.77953 11.4603 9.56833 11.6716 9.4147 11.8828C9.3764 11.8826 9.3764 11.9019 9.39555 11.9019L9.39558 11.9019Z" fill="black"/>
<path d="M10.951 17.5851C10.8934 17.5851 10.855 17.566 10.7974 17.5467C8.93497 16.7788 6.68857 15.9915 6.18937 15.9915H6.17022C5.78625 15.9724 5.63262 15.9724 5.55575 15.8571C5.24852 15.3386 6.38128 14.225 6.68852 14.0331C7.36058 13.5915 7.82128 13.5915 8.47405 13.7067C9.03078 13.8027 11.9684 14.8012 12.5636 15.0122C12.7749 15.089 12.8709 15.3002 12.794 15.5114C12.7749 15.5498 12.7556 15.5882 12.7364 15.6266L11.239 17.4508C11.1621 17.5469 11.0661 17.5852 10.9509 17.5852L10.951 17.5851ZM6.51579 15.3004C7.13026 15.3965 8.35906 15.742 10.8166 16.7404H10.8357L11.7957 15.6077V15.5885C10.4902 15.147 8.70454 14.5518 8.35894 14.494C7.87894 14.398 7.61014 14.398 7.13014 14.7053C6.8805 14.878 6.68844 15.07 6.51567 15.3004L6.51579 15.3004Z" fill="black"/>
<path d="M13.7542 9.15634L14.4263 8.86839H14.4454L15.6549 11.806C15.6933 11.8827 15.6549 11.9788 15.5782 11.998L15.0214 12.2284C15.0214 12.2284 14.9447 12.0748 14.9447 12.0556L13.7543 9.17564C13.7349 9.17564 13.7349 9.15634 13.7542 9.15634Z" fill="black"/>
<path d="M10.9509 12.7083L11.2389 12.5932C11.4502 12.4971 11.7189 12.6123 11.7957 12.8235L12.7941 15.2043C12.8326 15.2811 12.7941 15.358 12.7174 15.3964L12.1606 15.6268H12.1415L10.9511 12.7468C10.9317 12.7275 10.9317 12.7083 10.9509 12.7083Z" fill="black"/>
<path d="M11.6996 8.34993L12.1029 8.33078C12.1989 8.33078 12.2949 8.40752 12.2949 8.50355L12.4101 10.5771C12.4101 10.6732 12.3334 10.7692 12.2374 10.7692L11.8341 10.7884C11.7381 10.7884 11.642 10.7116 11.642 10.6156L11.5269 8.56112C11.5269 8.44594 11.6036 8.36922 11.6996 8.34993Z" fill="black"/>
<path d="M8.57 12.1323L9.1076 12.1132C9.1076 12.1132 9.12675 12.1132 9.12675 12.1323L9.26122 14.5132C9.26122 14.5132 9.26122 14.5323 9.24207 14.5323L8.8388 14.5515C8.64675 14.5706 8.47396 14.417 8.47396 14.2251L8.37794 12.3435C8.35879 12.2284 8.45469 12.1323 8.57 12.1323Z" fill="black"/>
</svg>
