<svg width="16" height="16" viewBox="0 0 16 16" fill="none" xmlns="http://www.w3.org/2000/svg">
<path fill-rule="evenodd" clip-rule="evenodd" d="M1.7325 3.99922C4.13911 3.96657 6.33184 3.04836 7.99961 1.55566C9.66738 3.04836 11.8601 3.96657 14.2667 3.99922C14.3541 4.51984 14.3996 5.05467 14.3996 5.60012C14.3996 9.78001 11.7282 13.336 7.99961 14.6538C4.271 13.336 1.59961 9.78001 1.59961 5.60012C1.59961 5.05467 1.6451 4.51984 1.7325 3.99922ZM10.9653 6.96578C11.2777 6.65336 11.2777 6.14683 10.9653 5.83441C10.6529 5.52199 10.1463 5.52199 9.83392 5.83441L7.19961 8.46873L6.16529 7.43441C5.85288 7.12199 5.34634 7.12199 5.03392 7.43441C4.7215 7.74683 4.7215 8.25336 5.03392 8.56578L6.63392 10.1658C6.94634 10.4782 7.45288 10.4782 7.76529 10.1658L10.9653 6.96578Z" fill="#8D98AF"/>
</svg>
