<svg width="14" height="14" viewBox="0 0 14 14" fill="none" xmlns="http://www.w3.org/2000/svg">
<path fill-rule="evenodd" clip-rule="evenodd" d="M0.732495 2.99922C3.13911 2.96657 5.33184 2.04836 6.99961 0.555664C8.66738 2.04836 10.8601 2.96657 13.2667 2.99922C13.3541 3.51984 13.3996 4.05467 13.3996 4.60012C13.3996 8.78001 10.7282 12.336 6.99961 13.6538C3.271 12.336 0.599609 8.78001 0.599609 4.60012C0.599609 4.05467 0.6451 3.51984 0.732495 2.99922ZM9.96529 5.96578C10.2777 5.65336 10.2777 5.14683 9.96529 4.83441C9.65288 4.52199 9.14634 4.52199 8.83392 4.83441L6.19961 7.46873L5.16529 6.43441C4.85288 6.12199 4.34634 6.12199 4.03392 6.43441C3.7215 6.74683 3.7215 7.25336 4.03392 7.56578L5.63392 9.16578C5.94634 9.4782 6.45288 9.4782 6.76529 9.16578L9.96529 5.96578Z" fill="#8D98AF"/>
</svg>
