<svg width="16" height="16" viewBox="0 0 16 16" fill="none" xmlns="http://www.w3.org/2000/svg">
<path d="M8.99216 2.61787L10.1767 4.91092C10.2233 5.00179 10.2844 5.07529 10.3565 5.13023C10.4298 5.18554 10.5159 5.22349 10.6123 5.24168L13.0723 5.70639C13.2806 5.74554 13.4654 5.83879 13.6149 5.97467C13.7644 6.11055 13.8778 6.28843 13.943 6.49781C14.0083 6.7072 14.017 6.92064 13.9715 7.12844C13.9245 7.33195 13.8285 7.51488 13.6862 7.66979L11.9584 9.55151C11.8901 9.62621 11.8411 9.70954 11.8134 9.79848C11.7857 9.88741 11.7778 9.98499 11.791 10.087L12.1268 12.6674C12.1548 12.8855 12.1276 13.0969 12.0498 13.2866C11.9716 13.477 11.8438 13.6446 11.673 13.7738C11.5026 13.9026 11.3102 13.9773 11.1115 13.9955C10.9146 14.0137 10.7134 13.9761 10.5234 13.8809L8.27007 12.7508C8.18167 12.7065 8.09098 12.684 8.0003 12.684C7.90997 12.684 7.81893 12.7062 7.73054 12.7508L5.46244 13.8881C5.27692 13.9778 5.08073 14.0133 4.88911 13.9956C4.69026 13.977 4.49795 13.9023 4.3276 13.7739C4.1569 13.6447 4.02898 13.4767 3.95082 13.2867C3.87301 13.097 3.84531 12.8856 3.8738 12.6675L4.20955 10.0871C4.22287 9.9851 4.21529 9.88789 4.18715 9.79858C4.15945 9.70964 4.11049 9.62631 4.0422 9.55161L2.31402 7.66988C2.16873 7.51185 2.07161 7.32369 2.02757 7.12183C1.98319 6.92035 1.99193 6.70691 2.05712 6.49753C2.1224 6.28851 2.23585 6.11027 2.38529 5.97439C2.53482 5.83851 2.71955 5.74525 2.92782 5.70612L5.38788 5.2414C5.48421 5.22321 5.5704 5.18526 5.64361 5.12995C5.71604 5.07501 5.77718 5.00114 5.82349 4.91065L7.00799 2.61759C7.10777 2.42401 7.25007 2.26984 7.42042 2.164C7.59156 2.05733 7.78917 2 7.9994 2C8.20997 2 8.40767 2.0577 8.57872 2.164C8.74942 2.2703 8.89137 2.42437 8.99115 2.61759L8.99216 2.61787Z" fill="black"/>
</svg>
