<svg width="24" height="24" viewBox="0 0 24 24" fill="none" xmlns="http://www.w3.org/2000/svg">
<path d="M11.4888 6.6092C12.5465 7.59866 13.0413 8.87813 13.0583 10.6523C13.0583 11.13 13.3995 11.5395 13.8601 11.6076C13.9113 11.6246 13.9624 11.6246 14.0136 11.6246C14.5424 11.6246 14.9519 11.2152 14.9689 10.6863V10.5498C14.9689 10.4817 14.9689 10.328 14.9859 10.1575C14.9859 10.004 15.1736 9.9357 15.2759 10.038C16.1801 11.0275 16.7089 12.307 16.7089 13.6035C16.7089 14.7123 16.1801 15.8554 15.2759 16.7254C14.3548 17.6125 13.1605 18.1072 11.9834 18.1072C10.8063 18.1072 9.61215 17.5954 8.69094 16.7254C7.78678 15.8554 7.25796 14.7124 7.25796 13.6035C7.25796 11.8463 8.33275 10.6181 9.27093 9.56036C10.3457 8.34907 10.9087 7.35974 11.011 6.55791C11.0281 6.42142 11.1817 6.37025 11.284 6.45557L11.4888 6.6092ZM10.4482 5.17623C10.3287 5.17623 10.2264 5.2274 10.1582 5.32974C10.09 5.44921 10.1923 5.70505 10.3117 6.02921C10.5505 6.76271 9.81703 7.93985 8.7764 9.117C7.80394 10.2258 6.59277 11.5906 6.59277 13.6207C6.59277 16.3503 9.16874 18.8239 12.0007 18.8239C14.8326 18.8239 17.4085 16.3503 17.4085 13.6207C17.4085 11.8977 16.5897 10.1917 15.2249 9.04876L15.0543 8.91227C14.969 8.84408 14.8836 8.80993 14.7813 8.80993C14.6278 8.80993 14.4743 8.89525 14.406 9.04875C14.3548 9.16823 14.3036 10.3624 14.3036 10.5671V10.6865C14.3036 10.84 14.1842 10.9595 14.0307 10.9595H13.9795C13.843 10.9425 13.7407 10.806 13.7407 10.6695C13.7237 8.6224 13.1095 7.18936 11.9494 6.11461C11.4207 5.6197 10.8235 5.17618 10.4482 5.17618L10.4482 5.17623Z" fill="black"/>
<path d="M12.0007 13.1771L13.0754 14.4566L13.1095 14.4906C13.3995 14.7806 13.553 15.173 13.553 15.5825C13.553 16.4354 12.8535 17.1349 12.0005 17.1349C11.1476 17.1349 10.4481 16.4354 10.4481 15.5825C10.4481 15.173 10.6016 14.7807 10.8916 14.4906L10.9256 14.4566L12.0007 13.1771ZM12.0007 12.3923C11.8642 12.3923 11.7277 12.4435 11.6254 12.563L10.3971 14.0301C10.0047 14.4396 9.74878 14.9854 9.74878 15.5996C9.74878 16.8279 10.7553 17.8344 11.9836 17.8344C13.2118 17.8344 14.2183 16.8279 14.2183 15.5996C14.2183 14.9854 13.9795 14.4396 13.57 14.0301L12.3417 12.563C12.2737 12.4435 12.1372 12.3923 12.0007 12.3923H12.0007Z" fill="black"/>
<path d="M12.0069 21.6171C11.6229 21.6171 11.2389 21.5211 10.8933 21.3292L4.17328 17.6428C3.44364 17.2395 2.98291 16.4716 2.98291 15.6268V8.40755C2.98291 7.56272 3.44374 6.79479 4.17328 6.39152L10.8933 2.70512C11.5845 2.32115 12.41 2.32115 13.1012 2.70512L19.8212 6.39152C20.5508 6.79479 21.0116 7.56272 21.0116 8.40755V15.6268C21.0116 16.4716 20.5507 17.2395 19.8212 17.6428L13.1012 21.3292C12.7748 21.5212 12.3908 21.6173 12.0069 21.6173V21.6171ZM12.0069 3.18513C11.7572 3.18513 11.5077 3.24272 11.2581 3.37719L4.53808 7.06359C4.03891 7.33238 3.75084 7.85082 3.75084 8.40755V15.6268C3.75084 16.1835 4.05807 16.7019 4.53808 16.9707L11.2581 20.6571C11.7189 20.9068 12.2757 20.9068 12.7365 20.6571L19.4565 16.9707C19.9557 16.7019 20.2629 16.1835 20.2629 15.6268V8.40755C20.2629 7.85082 19.9557 7.33239 19.4565 7.06359L12.7365 3.37719C12.506 3.24272 12.2565 3.18513 12.0069 3.18513Z" fill="black"/>
</svg>
