<svg width="24" height="24" viewBox="0 0 24 24" fill="none" xmlns="http://www.w3.org/2000/svg">
<path d="M12.0069 21.6171C11.6229 21.6171 11.2389 21.5211 10.8933 21.3292L4.17328 17.6428C3.44364 17.2395 2.98291 16.4716 2.98291 15.6268V8.40755C2.98291 7.56272 3.44374 6.79479 4.17328 6.39152L10.8933 2.70512C11.5845 2.32115 12.41 2.32115 13.1012 2.70512L19.8212 6.39152C20.5508 6.79479 21.0116 7.56272 21.0116 8.40755V15.6268C21.0116 16.4716 20.5507 17.2395 19.8212 17.6428L13.1012 21.3292C12.7748 21.5212 12.3908 21.6173 12.0069 21.6173V21.6171ZM12.0069 3.18513C11.7572 3.18513 11.5077 3.24272 11.2581 3.37719L4.53808 7.06359C4.03891 7.33238 3.75084 7.85082 3.75084 8.40755V15.6268C3.75084 16.1835 4.05807 16.7019 4.53808 16.9707L11.2581 20.6571C11.7189 20.9068 12.2757 20.9068 12.7365 20.6571L19.4565 16.9707C19.9557 16.7019 20.2629 16.1835 20.2629 15.6268V8.40755C20.2629 7.85082 19.9557 7.33239 19.4565 7.06359L12.7365 3.37719C12.506 3.24272 12.2565 3.18513 12.0069 3.18513Z" fill="black"/>
<path d="M13.2933 17.3931C11.9684 17.3931 10.7588 16.6635 10.1636 15.4923C10.0676 15.3002 10.1445 15.0699 10.3364 14.9739C10.5285 14.8778 10.7588 14.9547 10.8549 15.1466C11.3157 16.0492 12.2566 16.6251 13.2933 16.6251C14.8102 16.6251 16.039 15.4156 16.039 13.918C16.039 13.2844 15.8086 12.67 15.4054 12.1707C15.2709 12.0171 15.2902 11.7675 15.4437 11.6331C15.5973 11.4987 15.8469 11.518 15.9813 11.6716C16.5189 12.3052 16.8068 13.0924 16.8068 13.918C16.8069 15.838 15.2325 17.3932 13.2932 17.3932L13.2933 17.3931Z" fill="black"/>
<path d="M14.8294 13.0155C14.6949 13.0155 14.5606 12.9388 14.4838 12.8235C14.3878 12.6314 14.4454 12.4011 14.6375 12.305C15.5014 11.825 16.039 10.9035 16.039 9.92431C16.039 8.42671 14.8102 7.21708 13.2933 7.21708C12.0837 7.21708 10.9894 8.02348 10.663 9.17552C10.6054 9.38672 10.3942 9.5019 10.183 9.44431C9.97178 9.38672 9.8566 9.17551 9.91419 8.96431C10.3558 7.48587 11.7382 6.44914 13.2934 6.44914C15.2325 6.44914 16.807 8.00431 16.807 9.92434C16.807 11.1916 16.1158 12.3435 15.0021 12.9579C14.9445 12.9962 14.887 13.0155 14.8294 13.0155Z" fill="black"/>
<path d="M9.95256 15.6267C8.0134 15.6267 6.43896 14.0523 6.43896 12.1515C6.43896 10.2507 8.01343 8.67633 9.95256 8.67633C10.471 8.67633 10.9893 8.79151 11.4693 9.02186C11.6614 9.11789 11.7381 9.34825 11.6614 9.5403C11.5653 9.73235 11.335 9.80909 11.1429 9.73235C10.7781 9.55958 10.375 9.46356 9.97172 9.46356C8.45499 9.46356 7.22618 10.6732 7.22618 12.1708C7.22618 13.6684 8.45499 14.878 9.97172 14.878C10.375 14.878 10.7781 14.8013 11.1429 14.6284C11.335 14.5324 11.5653 14.6284 11.6614 14.8204C11.7574 15.0125 11.6614 15.2428 11.4693 15.3389C10.9701 15.5115 10.4709 15.6267 9.95243 15.6267L9.95256 15.6267Z" fill="black"/>
<path d="M9.72207 13.8987C8.78124 13.8987 7.99414 13.1308 7.99414 12.1899C7.99414 11.9787 8.16691 11.806 8.37811 11.806C8.5893 11.806 8.76207 11.9787 8.76207 12.1899C8.76207 12.7084 9.18447 13.1308 9.72207 13.1308C9.93328 13.1308 10.106 13.3035 10.106 13.5147C10.106 13.7259 9.93327 13.8987 9.72207 13.8987V13.8987Z" fill="black"/>
</svg>
