<svg width="16" height="16" viewBox="0 0 16 16" fill="none" xmlns="http://www.w3.org/2000/svg">
<path d="M5.30275 3.80905C5.0266 3.39528 4.46195 3.27935 4.09175 3.61164C3.3143 4.30947 2.7189 5.19316 2.36521 6.18616C1.91029 7.4634 1.87955 8.85333 2.27758 10.1494C2.6756 11.4455 3.48114 12.5787 4.57452 13.3804C5.6679 14.1822 6.99076 14.6098 8.34657 14.5998C9.70237 14.5898 11.0188 14.1427 12.1002 13.3248C13.1816 12.507 13.9703 11.3621 14.3491 10.0602C14.7279 8.75836 14.6766 7.36904 14.2029 6.09866C13.8346 5.111 13.2262 4.23621 12.4385 3.54995C12.0634 3.22316 11.5005 3.34743 11.2305 3.76524V3.76524C10.9605 4.18305 11.0886 4.73515 11.4443 5.08286C11.9154 5.54325 12.2823 6.10414 12.515 6.72812C12.8533 7.63524 12.8899 8.6273 12.6194 9.55689C12.3489 10.4865 11.7857 11.304 11.0135 11.888C10.2413 12.472 9.30137 12.7913 8.33325 12.7984C7.36513 12.8056 6.42054 12.5002 5.63981 11.9277C4.85908 11.3552 4.28388 10.5461 3.99966 9.6206C3.71545 8.69511 3.7374 7.70262 4.06224 6.7906C4.28569 6.16325 4.64426 5.59699 5.10844 5.1297C5.45901 4.77676 5.5789 4.22283 5.30275 3.80905V3.80905Z" fill="#E8503A"/>
<rect x="7.39941" y="2" width="1.8" height="7.2" rx="0.9" fill="#E8503A"/>
</svg>
