<svg width="18" height="18" viewBox="0 0 18 18" fill="none" xmlns="http://www.w3.org/2000/svg">
<path d="M6.00294 4.50925C5.72679 4.09548 5.16214 3.97955 4.79194 4.31184C4.0145 5.00967 3.41909 5.89336 3.06541 6.88635C2.61048 8.1636 2.57975 9.55353 2.97777 10.8496C3.3758 12.1457 4.18134 13.2789 5.27471 14.0806C6.36809 14.8824 7.69096 15.31 9.04676 15.3C10.4026 15.29 11.719 14.8428 12.8004 14.025C13.8818 13.2072 14.6705 12.0623 15.0493 10.7604C15.4281 9.45856 15.3768 8.06923 14.9031 6.79885C14.5348 5.8112 13.9264 4.93641 13.1387 4.25014C12.7636 3.92336 12.2007 4.04763 11.9307 4.46543V4.46543C11.6607 4.88324 11.7888 5.43535 12.1445 5.78306C12.6156 6.24344 12.9825 6.80433 13.2152 7.42832C13.5535 8.33544 13.5901 9.32749 13.3196 10.2571C13.0491 11.1867 12.4859 12.0042 11.7137 12.5882C10.9415 13.1722 10.0016 13.4915 9.03345 13.4986C8.06533 13.5058 7.12073 13.2004 6.34 12.6279C5.55927 12.0554 4.98407 11.2463 4.69986 10.3208C4.41565 9.39531 4.4376 8.40282 4.76244 7.4908C4.98589 6.86344 5.34446 6.29719 5.80863 5.82989C6.15921 5.47696 6.27909 4.92302 6.00294 4.50925V4.50925Z" fill="#E8503A"/>
<rect x="8.09961" y="2.7002" width="1.8" height="7.2" rx="0.9" fill="#E8503A"/>
</svg>
