<svg width="12" height="12" viewBox="0 0 12 12" fill="none" xmlns="http://www.w3.org/2000/svg">
<path d="M6 2.5L6 2.505M6 6L6 6.005M6 9.5L6 9.505M6 3C5.72386 3 5.5 2.77614 5.5 2.5C5.5 2.22386 5.72386 2 6 2C6.27614 2 6.5 2.22386 6.5 2.5C6.5 2.77614 6.27614 3 6 3ZM6 6.5C5.72386 6.5 5.5 6.27614 5.5 6C5.5 5.72386 5.72386 5.5 6 5.5C6.27614 5.5 6.5 5.72386 6.5 6C6.5 6.27614 6.27614 6.5 6 6.5ZM6 10C5.72386 10 5.5 9.77614 5.5 9.5C5.5 9.22386 5.72386 9 6 9C6.27614 9 6.5 9.22386 6.5 9.5C6.5 9.77614 6.27614 10 6 10Z" stroke="white" stroke-linecap="round" stroke-linejoin="round"/>
</svg>
